/* XPM */
static char *ac83b5d9096e4c71b4bbae5942c7fc0d[] = {
/* columns rows colors chars-per-pixel */
"41 78 30 1 ",
"  c None",
". c black",
"X c gray8",
"o c #532E1C",
"O c #7D452A",
"+ c #FF7A3F",
"@ c #97324E",
"# c #F65C65",
"$ c #FF557D",
"% c #FFF21D",
"& c #E3A479",
"* c #493980",
"= c #7A67BB",
"- c #7400FF",
"; c #7900FF",
": c #5C28F6",
"> c #4A55DD",
", c #C12ABD",
"< c #FF5280",
"1 c #A914DA",
"2 c #9404EE",
"3 c #2CA9BC",
"4 c #1AE985",
"5 c #2AE28E",
"6 c #FFA490",
"7 c #FFBEA8",
"8 c #FFD9BA",
"9 c #C3C3C3",
"0 c #CFD3F3",
"q c #F8F8F8",
/* pixels */
"                         ........        ",
"                     ....OOOOOOOO..      ",
"                 ....OOOOOOOOOOOOOO.     ",
"               ..OOOOOOOOOOOOOOOOOOO.    ",
"             ..OOOOOOOOOOOOOOOOO.OOOO.   ",
"           ..<.OOOOOOOOOOOOOOOO.&.OOO.   ",
"       .. ..<<.OOOOOOOOOOOOOOOO.&&.OO.   ",
"      .Oo.o.<<.OOOOOOOOOOOOOOOO.8&&.O.   ",
"     .Oo.Oo.<<.OOOOOOOOOOOOOOOO.88&.O.   ",
"     .Oo.o.<<.oOOOOOOOOOOOOOOOO.888&.    ",
"      ..Oo.<<.oOOOOOOOOOOOOOOO.&8888.    ",
"       .Oo.<<.oOOOOOOOOO...OOO.&88...    ",
"       .Oo.<<.oOOOOOOOO.oooOOO.&8.&&.    ",
"       .Oo.<<.oOOOOOOOOoOOOOO.&88&88.    ",
"       .Oo.<<.oOOOOOOOOOOOOOO.&88888.    ",
"       .Oo.<<.oOOOOOOOO.OOOO.&888888. .  ",
"       .Oo.<<.oOOOOOOOO.O.....888.... .  ",
"       .Oo.<<.oOOOOOOOOo.00000.8.000..   ",
"      .OOOo.<<.oOOOOO...0qqqqq0.0qqq0..  ",
"      .OOOo.<<.oOOOOOoo.qqqqqqq.qqqqq.   ",
"      .OOOo.<<.oOOOOOOO.qqqq..q.qq..q.   ",
"      .OOOOo.<<.OOOOOOO.qqqq..q.qq..0.   ",
"      .OOOOo.<<.oOOOOOO.0qqqqq0.0000.8.  ",
"      .OOOOOo.<.oOOOOO.&.00000.8....888. ",
"      .OOOOOo.<.oOOOO.&88.....8888.&8778.",
"      .OOOOOo....OOO.&877888888888.&7667.",
"      .OOOOOo.888...&87667888888..&87667.",
"      .OOOOO.88&888888766788888888888778.",
"      .OOOOO.888&88888877888888888888888.",
"      .OOOOO.888&888888888888.888888888. ",
"      .OOOOOo.8888888888888888....88888. ",
"       .OOOOOo.8888..88888888888888888.  ",
"       .OOOOOOo....oo.888888888888888.   ",
"       .OOOOOOOooooOOo.8888888888888.    ",
"       .OOOOOOOOOOOOo.<...88888888..     ",
"       .OOOOOOOOOOOo.<<@@@.........      ",
"        .OOOOOOOOOOo.<<.@@.&&&.@@@<.     ",
"        .OOOOOOOOOOo.<<<...888.@@.<.     ",
"        .OOOOOOOOOOo.<<.<<<......<<.     ",
"        .OOOOOOOOOOOo.<.<<<.<<<<<.<.     ",
"       .OOOOOOOOOOOo.@.<<<<.<<<<<<.      ",
"      .OOOOOOOOOOOOo.<@.<<<.<<<<<.       ",
"     .OOOOOOOOOOOOOo.<<@..<.<<<<.@.      ",
"    .OOOOOOOOOOOOOo.<<<<@@......@<<.     ",
"   .OOOOOOOOOOOOOOo.<<<<<<@@@@@@<<<.     ",
"  .OOOOOOOOOOOOOOo.<<<<<<<<<<<<<<<<.     ",
" .OOOOOOOOOOOOOOOo.<<<<<<<<<<<<<,.<<.    ",
" .OOOOOOOOOOOOOOo.<<<<<<<<<<<$<,;.<<.    ",
".OOOOOOOOOOOOOOOo.<<<<<<.<<<<<1->.<<.    ",
".OOOOOOOOOOOOOOOo.<<<<<<.<<<%2:34+.<<.   ",
".OOOOOOOOOOOOOOo.<<<<<<<.<<%%%54+<.<<.   ",
".OOOOOOOOOOOOOOo.<<<<<<<.<%%%%%+#<.<<<.  ",
".OOOOOOOOOOOOOOo.<<<<<<<.<<%%%<<<<.<<<.  ",
" .OOOOOOOOOOOOo.<<<<<<<<<.<%<%<<<<<.<<<. ",
"  .OOOOOo.OOOOo.<<<<<<<<<.<<<<<<<<<.<<<. ",
"   ..OOo.OOOOo.<<<<<<<<<<<.<<<<<<<<.<<<. ",
"     ....OOOOo.<<<<<<<<<<<.<<<<<<<<.<<<. ",
"        .OOOOo.<<<<<<<<<<<.<<<<<<<<.<<.  ",
"        .OOOOo.<<<<<<<<<<<.<<<<<<<<.<<.  ",
"         .OOOOo.<<<<<<<<<.@<<<<<<<.@<.@. ",
"          .OOo.@..<<<<<<.@<<<<<<<.@<<<<. ",
"           ....<@@<<<<<<.........*.....  ",
"               .<<<<<<<<.**======*.&8&.  ",
"                ........**=======*....   ",
"                 .&8&. ...........       ",
"                  ...  .&8. .&8.         ",
"                       .&8. .&8.         ",
"                       .&8. .&8.         ",
"                       .&8. .&8.         ",
"                       .&8. .&8.         ",
"                       .... ....         ",
"                       .9q. .9q.         ",
"                       .9q...........    ",
"                       .9qqqqqqq..qqq..  ",
"                       .........XX...XX. ",
"                       .XXXXXXXXXX.XXXX. ",
"                       .XXXXXXXXXX.XXXX. ",
"                        ...............  "
};
