/* XPM */
static char *_d50924e25074ab5cd2e849e218674ef[] = {
/* columns rows colors chars-per-pixel */
"47 142 175 2 ",
"   c None",
".  c black",
"X  c #010101",
"o  c #020202",
"O  c gray1",
"+  c #040404",
"@  c gray2",
"#  c #060606",
"$  c #070707",
"%  c gray3",
"&  c #090909",
"*  c #0B0B0B",
"=  c #0C0C0C",
"-  c #0D0D0C",
";  c gray5",
":  c #0E0E0E",
">  c #111111",
",  c #131313",
"<  c gray8",
"1  c #151515",
"2  c #161616",
"3  c gray9",
"4  c #181817",
"5  c #181818",
"6  c #191919",
"7  c #1B1B1B",
"8  c #19181C",
"9  c #1D1D1D",
"0  c gray12",
"q  c #312A00",
"w  c #202020",
"e  c gray13",
"r  c #232323",
"t  c gray14",
"y  c #252525",
"u  c gray15",
"i  c #272727",
"p  c #282828",
"a  c gray16",
"s  c #2A2A2A",
"d  c #2C2C2C",
"f  c #2D2D2D",
"g  c gray18",
"h  c #2F2F2F",
"j  c gray19",
"k  c #313131",
"l  c #323232",
"z  c gray20",
"x  c #343434",
"c  c #353535",
"v  c gray21",
"b  c #373737",
"n  c gray22",
"m  c #393939",
"M  c #3A3A3A",
"N  c gray23",
"B  c #3C3C3C",
"V  c gray24",
"C  c #3E3E3E",
"Z  c #3F3F3F",
"A  c #7C6D0A",
"S  c #3C3542",
"D  c #3D3642",
"F  c gray25",
"G  c #414141",
"H  c #434343",
"J  c #444444",
"K  c gray27",
"L  c #464646",
"P  c gray28",
"I  c #484848",
"U  c #494949",
"Y  c gray29",
"T  c gray32",
"R  c #535353",
"E  c #5C5B64",
"W  c #646464",
"Q  c #676767",
"!  c #6F637A",
"~  c #767A79",
"^  c #79797C",
"/  c #817219",
"(  c #826A6D",
")  c #93891F",
"_  c #BFAD0A",
"`  c #C3B100",
"'  c #C1B10A",
"]  c #D7C605",
"[  c #E9D70E",
"{  c #9D9463",
"}  c #9E9673",
"|  c #A09862",
" . c #A59D65",
".. c #7B6E8C",
"X. c #7D56ED",
"o. c #807295",
"O. c #835FEE",
"+. c #835FEF",
"@. c #845FEE",
"#. c #8562EF",
"$. c #8663EE",
"%. c #8663EF",
"&. c #8866EE",
"*. c #9478EB",
"=. c #967BEB",
"-. c #8662F6",
";. c #8460FE",
":. c #9A7CF2",
">. c #9A7FFB",
",. c gray54",
"<. c #8B8B8B",
"1. c #8D8D8D",
"2. c #908E92",
"3. c #939696",
"4. c #A49388",
"5. c #A69592",
"6. c #A09CAD",
"7. c #A89FB7",
"8. c #AA97BF",
"9. c #A1A0AE",
"0. c #A7A7AF",
"q. c #AAAAB1",
"w. c #B8B8B3",
"e. c #B2BABA",
"r. c #B8B9C2",
"t. c #B6A4D6",
"y. c #B3A8D0",
"u. c #9A82EE",
"i. c #9C82FB",
"p. c #A998E6",
"a. c #AC9CE5",
"s. c #AC9CEE",
"d. c #AB91F7",
"f. c #AB92F7",
"g. c #B49DF9",
"h. c #B8B3F3",
"j. c #BAB4F2",
"k. c #C2BDDF",
"l. c #C0BAE0",
"z. c #C6B4FD",
"x. c #CCBBFF",
"c. c #CDBCFF",
"v. c #D0BFFF",
"b. c #D1BFFF",
"n. c #C6CCCD",
"m. c #CACBD9",
"M. c #CBCADC",
"N. c #CBCBDC",
"B. c #CCCBDD",
"V. c #CCCCDD",
"C. c #CECEDC",
"Z. c #CFD0DC",
"A. c #CFD2E0",
"S. c #D1D2E0",
"D. c #D1D3E0",
"F. c #D1D1E3",
"G. c #D1D6E2",
"H. c #D0D0E7",
"J. c #D6D8E2",
"K. c #D6D8E5",
"L. c #D1D1EC",
"P. c #D2D3ED",
"I. c #D7DBEC",
"U. c #D2DDEF",
"Y. c #D2C1FF",
"T. c #D6C3FF",
"R. c #D5E5E4",
"E. c #D8E1E6",
"W. c #D8E1EA",
"Q. c #DDE7EE",
"!. c #DEF1EF",
"~. c #E0E9F2",
"^. c #E1F1F3",
"/. c #E3F6F0",
"(. c #E8F6FB",
/* pixels */
"                                            . .                                               ",
"                                            6 h                                               ",
"                                            9 h                                               ",
"                                          % x x 6                                             ",
"                                          % x m 6                                             ",
"                                          % x m 6                                             ",
"                                          % x x 6                                             ",
"                                        . . 9 h . .                                           ",
"            . .                     . $ z H J J K m 3 .                       .               ",
"          + H H .                 + C K J J J J K K K K 3 .                 . K 6             ",
"        6 I K C .             . 3 J J J J J J J K H K H K s .               . H H +           ",
"        6 I C h .           . s K J J J J J J J H K H K K K C +             . x I h           ",
"        3 I x h .         + m K K J J J J J J J K H K H H K K H 3           . h H I 6         ",
"        3 I x h +         x I K K J J J J J J J H K H K K H H K K +         . h l K 6         ",
"        3 I x h .       3 H K K J K B l l l x % . m K K K K K H K s         . h x m >         ",
"        3 I x h .     + m K K x l 4 0.J.a.#.-.l.K.^ . . . m K K H H 3       . l x x >         ",
"        6 K x h .     s e . . o.y.r.S.k.$.&.#.j.Z.n.B.H.q.; . . . = x +     . l l x >         ",
"          h m l .     . D 8.x.Y.4.A S.=.-.+.p.I.| / L.B.m.6.c.b.t.! . .     . l x i           ",
"          h m x e     . . . D Y.5.`  .i.#.O.s.w.' [ | P.m.6.T.... . .       e x x e           ",
"          h m x e             . q ] ( ;.d.:.-.7.' [ } L.Q.~ . .             e m x i           ",
"          + l x x =               ) h.X.d.z.O.>.| / H.B.Q.~               3 I x l +           ",
"          + m l x >               n.j.X.d.z.O.*.S.B.m.G.W.8             . x I C l +           ",
"            6 C z l .             3./.u.@.g.$.=.C.V.B.^.e.              e K K I 6             ",
"              h b x e             2.E.U.#.&.#.l.V.Z.!.(.E             % H K I l               ",
"              + C l x = .           <.T H H K C W R.~.9.            . C K K m .               ",
"                . h x m e .           e K K H K K K C +         . > I K m i .                 ",
"                  . 3 x x h .         . 3 K K K I h .       . . s I C i . .                   ",
"                      . 3 x x = . +       + x m 4 +     . . i I m i . .                       ",
"                          . 3 m x x x l l l x x x x x l x l x s . .                           ",
"                              . . . . . . h K K C + . . . . . .                               ",
"                                          x K K K =                                           ",
"                                        6 K K H K h                                           ",
"                                      + C K K H K K 3 .                                       ",
"                                    9 T <.1.W H K H I x                                       ",
"                                      . . s x x x % . .                                       ",
"                                          % I I e                                             ",
"                                            i C                                               ",
"                                            . .                                               ",
"                                                                                              ",
"                                                                                              ",
"                                                                                              ",
"                                                                                              ",
"                                                                                              ",
"                                                                                              ",
"                                                                                              ",
"                                                                                              ",
"                                                                                              ",
"                                                                                              ",
"                                                                                              ",
"                                                                                              ",
"                                                                                              ",
"                                                                                              ",
"                                                                                              ",
"                                                                                              ",
"                                                                                              ",
"                                                                                              ",
"                                                                                              ",
"                                                                                              ",
"                                                                                              ",
"                                                                                              ",
"                                                                                              ",
"                                                                                              ",
"                                                                                              ",
"                                                                                              ",
"                                                                                              ",
"                                                                                              ",
"                                                                                              ",
"                                                                                              ",
"                                                                                              ",
"                                                                                              ",
"                                                                                              ",
"                                                                                              ",
"                                                                                              ",
"                                                                                              ",
"                                                                                              ",
"                                                                                              ",
"                                                                                              ",
"                                                                                              ",
"                                                                                              ",
"                                                                                              ",
"                                                                                              ",
"                                                                                              ",
"                                                                                              ",
"                                                                                              ",
"                                                                                              ",
"                                                                                              ",
"                                                                                              ",
"                                                                                              ",
"                                                                                              ",
"                                                                                              ",
"                                                                                              ",
"                                                                                              ",
"                                                                                              ",
"                                                                                              ",
"                                                                                              ",
"                                                                                              ",
"                                                                                              ",
"                                                                                              ",
"                                                                                              ",
"                                                                                              ",
"                                                                                              ",
"                                                                                              ",
"                                                                                              ",
"                                                                                              ",
"                                                                                              ",
"                                                                                              ",
"                                                                                              ",
"                                                                                              ",
"                                                                                              ",
"                                                                                              ",
"                                                                                              ",
"                                                                                              ",
"                                                                                              ",
"                                                                                              ",
"                                                                                              ",
"                                                                                              ",
"                                                                                              ",
"                                                                                              ",
"                                                                                              ",
"                                                                                              ",
"                                                                                              ",
"                                                                                              ",
"                                                                                              ",
"                                                                                              ",
"                                                                                              ",
"                                                                                              ",
"                                                                                              ",
"                                                                                              ",
"                                                                                              ",
"                                                                                              ",
"                                                                                              ",
"                                                                                              ",
"                                                                                              ",
"                                                                                              ",
"                                                                                              ",
"                                                                                              ",
"                                                                                              ",
"                                                                                              ",
"                                                                                              ",
"                                                                                              ",
"                                                                                              ",
"                                                                                              "
};
