/* XPM */
static char *eef9bce552a44f0dac48f556150d3116[] = {
/* columns rows colors chars-per-pixel */
"54 102 50 1 ",
"  c None",
". c black",
"X c gray6",
"o c #161616",
"O c #1E1E1E",
"+ c #341900",
"@ c #342900",
"# c gray13",
"$ c gray16",
"% c #3C3C3C",
"& c #470006",
"* c #401800",
"= c #611800",
"- c #700B15",
"; c #74111A",
": c #432100",
"> c #522000",
", c #653D16",
"< c #781720",
"1 c #7C1D26",
"2 c #6D4016",
"3 c #744619",
"4 c #74481E",
"5 c #5A5A5A",
"6 c #805125",
"7 c #87582B",
"8 c #FF6938",
"9 c #FF7A4F",
"0 c #B8A354",
"q c #FF865E",
"w c #FF916D",
"e c #FF9978",
"r c #FFAC78",
"t c gray63",
"y c #A9A9A9",
"u c #BCBCBC",
"i c #FFA88B",
"p c #FFB687",
"a c #DED18C",
"s c #FFC19A",
"d c #FFD1B4",
"f c #C3C3C3",
"g c gray78",
"h c gray81",
"j c gray84",
"k c #FFDFCB",
"l c #FFF8D2",
"z c gray90",
"x c gray93",
"c c white",
/* pixels */
"                                    ....              ",
"                                   .OoX..             ",
"                                  .OOOoX..            ",
"         &&&&&&&&&&&&&&&&&&&&&&&&&&&&&oX..            ",
"         &11111111111111111111<<;;;--&oX..            ",
"         &11111111111111111111<<;;;--&XX..            ",
"        &1111111111111111111111<<;;;--&..             ",
"        &1111111110001111111111<<;;;--&@@             ",
"        &1111111100000111111111<<;;;--&0@             ",
"        &1111111111000010111111<<;;;--&0@             ",
"        &1111111001100000111111<<;;;--&0@             ",
"        &1111111001110000111111<<;;;--&@@             ",
"        &1111111001100000111111<<;;;--&X..            ",
"        &1111111111000010111111<<;;;--&X..            ",
"        &1111111100000111111111<<;;;--&X..            ",
"        &1111111110001111111111<<;;;--&X..            ",
"        &1111111111111111111111<<;;;--&X..            ",
"     >>>&111yyyyyy1yyyyyy111111<<;;;->>>>>            ",
"    >p......yyyyyy.yyyyyy........;;;>ddddd>           ",
"   >sp...........................;;>dddddds>          ",
"   >dsp..sssssssss.sssssssssss..<;;>dddssss>          ",
"  >ddsp..kkkkcccck.kcccckkkkkk..<;>ddds>>sss>         ",
"  >ddsp..kkkcccccc.cccccckkkkk....>dds>rr>ss>         ",
"  >ddsp..kkkc..ccc.c..ccckkkkk....>dd>rrrrss>         ",
"  >ddsp..kkkc..ccc.c..ccckkkk..5yt5dd>rrrpps>         ",
"   >dsp..kkkccccc==cccccckkkk..5yt5d>rrrpps>          ",
"   >dsp..kkkkccc=q=kcccckkkkk..d55pd>rrrpps>          ",
"    >dsp..kkkkk=wwq=kkkkkkkk..jjdspd>rrrps>           ",
"    >dsp......=eewq=..........jjjsp>pprpps>           ",
"     >ds$j....=iewq9=........jgjjhp>>>ppp>            ",
"     >ds$jjjj=weewq9=jjjjjj$$$$jjhp>dd>pp>            ",
"      >s$jgjj=qwwwq9=jhj$$$lll$jjhpddd>p>             ",
"      >s$jj$$=qqqq98=$$$llllaa$jjhpddddp>             ",
" ....>sp$jjjjl=9998=llllllaall$jjhpddddpr>.........   ",
".OOOO>sp$jjjjll====llllllllll$jjjhpddddpr>OOOOOoXX..  ",
".OOOO>sp$jgjjaaalllllllllll$$jjgjh>rddppr>OOOOOoXX..  ",
".OOOOO>r$jjjjlllllllllll$$$jjjjjjhf>pppr>OOOOOOoXX..  ",
".OOOOOO>$jjj$$$$$$$$$$$$jjjjhjjjjhff>>>>OOOOOOOoXX..  ",
" .OOOOOO$jjjjjjjjjjjjjjjjjjhfjhjjhfffu$OOOOOOOoXX..   ",
" .OOOOOO$hjjjjgjjhjjgjjjjjhfujjjhhffu$OOOOOOooXX...   ",
" .OOOOOOO$jjjjjjjjjjjjjjjjhfuhhhhfffu$OOOOOOoXX....   ",
" .OOOOOOO$jj$jjjjjjjjjjjjhfu$fffffffu$OOOOOOOoXX...   ",
" .OOOOOOOO$j$hjjjgjjjjjjjhfu$fffffuu$OOOOOOOOOoXX...  ",
" .OOOOOOOOO#$jjjjjjjjjgjjhfu$uuuuu$$OOOOOOOOOOoXX...  ",
" .OOOOOOo.OO$hjjjjjjjjjjjhfu$#$$$$OOOOOOOOOOOOoXX...  ",
" .OOOOOo.OOOO$hhjjjjjjjjjhfu$.OOOOOOOOOOOOOOOOOoXX..  ",
" .OOOOOo.OOOOO$$hhhhhhhhhfu$X..OOOOOOOOo.OOOOOOoXX..  ",
" .OOOOOo.OOOOO.X$$$$$$$$$$$.XX.OOOOOOOoXX.OOOOOoXX..  ",
" .OOOOOo.OOOOO.XX.cc11ccccz.XX.OOOOOOOoXX.OOOOOoXX..  ",
" .OOOOOo.OOOOO.XXX.c11cccz.XXX.OOOOOOOoXX..OOOOoXX..  ",
" .OOOOOo.OOOOO..XX111111cz.XX..OOOOOOOoXX..OOOOoXX..  ",
" .OOOOOo.OOOOOOO11.z11zz111X.OOOOOOOOOoXX..OOOOoXX..  ",
" .OOOOOo.OOOOOO.XXX.c1ccz.XXX.OOOOOOOoXX...OOOOoXX..  ",
" .OOOOOoX.OOOOOO.XX.c1ccz.XX.OOOOOOOOoXX.. .OOOOoXX.. ",
" .OOOOOoX.OOOOOO.XX.ccccz.XX.OOOOOOOOoXX.. .OOOOoXX.. ",
" .OOOOOoX.OOOOOOO.XX.ccz.XX.OOOOOOOOOoXX.. .OOOOoXX.. ",
" .OOOOOoX.OOOOOOO.XX.ccz.XX.OOOOOOOOOoXX.. .OOOOoXX.. ",
" .OOOOOoX..OOOOOOO.X.ccz.X.OOOOOOOOOoXX..  .OOOOoXX.. ",
" .OOOOOoX..OOOOOOO.X.ccz.X.OOOOOOOOOoXX..  .OOOOoXX.. ",
" .OOOOOoX..OOOOOOOO.X.z.X.OOOOOOOOOOoXX..  .OOOOoXX.. ",
" .OOOOOoX...OOOOOOO.X.z.X.OOOOOOOOOoXX..   .OOOOoXX.. ",
" .OOOOOoX...OOOOOOOO.X.X.OOOOOOOOOOoXX..   .OOOOoXX.. ",
" .OOOOOoX...OOOOOOOO.X.X.OOOOOOOOOOoXX..   .OOOOoXX.. ",
" .OOOOOoX.. .OOOOOOOO...OOOOOOOOOOoXX..    .OOOOoXX.. ",
" .......... .OOOOOOOOO.OOOOOooOOOOoXX..    .......... ",
" %cccccxzj% .OOOOOOOOO.OO.ooOOOOOOoXX..    %ccccxzzj% ",
" %%%%%%%%%%  .OOOOOOOO.O.X.OOOOOOoXX..     %%%%%%%%%% ",
" >ddddsppr>  .OOOOOOOO.OO.ooOOOOOoXX..     >ddddsppr> ",
">ddddddsppr> .OOOOOOOO.OOOOOooOOOoXX..    >dddddsppr> ",
">ddd>ddsppr>  .OOOOOOO.OOOOOOOOOoXX..    >dddddddsppr>",
">ddds>dsppr>  .OOOOOOOO.OOOOOOOOoXX..    >dddddddsppr>",
">d>ds>dsppr>  .OOOOOOOO.OOOOOOOOoXX..   >ddddddddsppr>",
">d>ds>>ds>pr>  .OOOOOOO.OOOOOOOOoX..    >dd>dddddsppr>",
">d>ds>>ds>pr>  .OOOOOO.O.OOOOOOoXX..    >dd>dds>sp>pr>",
">dd>>ds>sp>pr> .OOOOOO.O.OOOOOOoXX..    >dd>dds>sp>pr>",
">dds*ds>sp>pr> .......OOO...........     >>ddds>sp>pr>",
" >ds>ds>dsp>pr>.OOOOOOOOOOOOOOOoXX..      >dds>sp>pr> ",
" >dds>ds>sp>pr>.OOOOOOOoX..OOOOoXX..      >dds>sp>pr> ",
"  >ds>ds>sp>*> .OOOOOOoX.  .OOOoXX..      >ds>sp>pr>  ",
"   >> >> >>     .OOOOoX.    .OOoXX..       >> >> >>   ",
"                .OOOOoX.    .OOoXX..                  ",
"                .OOOOoX.    .OOoXX..                  ",
"                .OOOOoX.    .OOoXX..                  ",
"                .OOOOoX.    .OOoXX..                  ",
"                .OOOOoX.    .OOoXX..                  ",
"                .OOOOoX.    .OOoXX..                  ",
"                .OOOOoX.    .OOoXX..                  ",
"                .OOOOoX.    .OOoXX..                  ",
"                .OOOOoX.    .OOoXX..                  ",
"                .OOOOoX.    .OOoXX..                  ",
"                .OOOOoX.    .OOoXX..                  ",
"                .OOOOoX.    .OOoXX..                  ",
"                .OOOOoX.    .OOoXX..                  ",
"                .OOOOoX.    .OOoXX..                  ",
"                .OOOOoX.    .OOoXX..                  ",
"                .OOOOoX.    .OOoXX..                  ",
"                ....OoX.    ....XX..                  ",
"         ::::::::776.::::::::776....                  ",
"        :77773777776:77773777776442:                  ",
"       :77777737776:777777377766442:                  ",
"       :666666,6666:666666,66664:22:                  ",
"       :::::::::::+::::::::::::: :::                  "
};
