/* XPM */
static char *_0697_a920f2b218dca49b8d30a22d0c3dc0f25ce8013e041c9fb53cfeb63d97ae4e18[] = {
/* columns rows colors chars-per-pixel */
"69 71 16 1 ",
"  c #FC05F0",
". c #C07A64",
"X c #894435",
"o c #35B70E",
"O c #052900",
"+ c #005E00",
"@ c #6900D2",
"# c #9428FF",
"$ c #CE9DFF",
"% c #3A005F",
"& c #FFC0A3",
"* c #FFD6C0",
"= c #F9B571",
"- c #D48F3E",
"; c #793F0A",
": c None",
/* pixels */
":::::::::::::::::::::::::::::::::::::::::::::::::::::::::::::::::::::",
":::::::::::::::::::::::::::::::::::::::::::::::::::::::::::::::::::::",
":::::::::::::::::::::::::::::::::::::::::::::::::::::::::::::::::::::",
":::::::::::::::::::::::::::::::::::::::::::::::::::::::::::::::::::::",
":::::::::::::::::::::::::::::::::::::::::::::::::::::::::::::::::::::",
"::::::::::::::::.XX::::::::::::::::::::::::::::::::::::::::::::::::::",
":::::::::::::::.XXXX:::::::::::::::::::::::::::::::::::::::::::::::::",
"::::::::::::::.XXo.X:::::::::::::::::::::::::::::::::::::::::::::::::",
"::::::::::::::.XoO+.X::::::::::::::::::::::::::::@#$$##::::::::::::::",
"::::::::::::::XX+O+XX::::::::::::::::::::::::::@@$######@@:::::::::::",
"::::::::::::::.X+O+XX:::::::::::::::::::::::::@$####@@@@#@@::::::::::",
"::::::::::::::XX+O+.X::::::::::::::::::::::@@@$###@@@@@@@@@::::::::::",
"::::::::::::::.XX+XXX::::::::::$##:::::::@@$#####@@@@%%%@@@::::::::::",
":::::::::::::::.XX.XX::::::::$@@@@@@@::@@$####@@@@%%%%%%%%@::::::::::",
"::::::::::::::::.XXXX:::::::$@@%%%%$@@@#$###@@%@%%%%:::::%%::::::::::",
":::::::::::::::::.XXX:::::::#@%%%%%%%%$@###@%@@%%%%::::::::::::::::::",
"::::::::::::::::::.XX:::::::#@%%%%%%%%%$@@@%@%%@%%%::::::::::::::::::",
"::::::::::::::::::XXX:::::::#@%%%%%%%%%%#@@@%@%%%%:::::::::::::::::::",
"::::::::::::::::::.XX::::::::@%%%%%%%%%%%$@@@%%%%%:::::::::::::::::::",
"::::::::::::::::::.XX::::::::@%%%%%%%%%%%%#@@@%%%%:::::::::::::::::::",
":::::::::::::::::::XX:::::::::@%%%%%o%%%%%%$@@@%%%:::::::::::::::::::",
":::::::::::::::::::X.::::::::::@%%%o+OOo++%%$@@@@&&&:::::::::::::::::",
":::::::::::::::::::XX:::::::::::@%%o+++++O+++#@@@@**&::::::::::::::::",
":::::::::::::::::::.X::::::::::::@o++++++O.+++#@@@@**::::::::::::::::",
"::::::::::::::::::::.X::::::::::::o++OOOO..++O+#@@@**@:::::::::::::::",
"::::::::::::::::::::X.:::::::::::::++.%..%&o+O++O%@@*&@::::::::::::::",
"::::::::::::::::::::.X::::::::::::::+&%*&%*+O+++O%%%*&:::::::::::::::",
"::::::::::::::::::::.X:::::::::::::::*%*&%*&+++O%%%%*&:::::::::::::::",
"::::::::::::::::::::XX:::::::::::::::**&&&&&.+O%%%::*&:::::::::::::::",
"::::::::::::::::::::XX::::::::::::::::&&&&&.%%%:::#@*.:::::::::::::::",
":::::::::::::::::::***&::::::::::::::::::*.:::::##@%*.%::::::::::::::",
":::::::::::::::::::*&&&&::::::::$#@::$#=@..$####@@@%*.%::::::::::::::",
"::::::::::::::::::::**&&*********@@@###=@@@#@##@@@@%..%::::::::::::::",
"::::::::::::::::::::***&&&&&&&&..@@@@@##=@@#@@@@#@@@%%%::::::::::::::",
":::::::::::::::::::::*&&:::::::#%@@@%%%##=#@%@@@@#@@@%%::::::::::::::",
"::::::::::::::::::::::.X:::::::#%@@@:::@$=@%%%%:::@@@@:::::::::::::::",
"::::::::::::::::::::::.X:::::::#@@:::::@$#=@%%:::::::::::::::::::::::",
"::::::::::::::::::::::.X::::::::@::::::@#@@=%%:::::::::::::::::::::::",
"::::::::::::::::::::::.X::::::::::::::@$##@%-%=-:::::::::::::::::::::",
"::::::::::::::::::::::.X::::::::::::::@$#@#@%===-::::::::::::::::::::",
":::::::::::::::::::::::X.:::::::::::::###@@%%==-;::::::::::::::::::::",
":::::::::::::::::::::::.X::::::::::::@$#@@#@%---;::::::::::::::::::::",
":::::::::::::::::::::::.X::::::::::::@#@#@@%@%;;;::::::::::::::::::::",
":::::::::::::::::::::::X.:::::::::::@$##@@%@%%%%:::::::::::::::::::::",
":::::::::::::::::::::::.X::::::::::@$##@#@@%@@%%%::::::::::::::::::::",
":::::::::::::::::::::::.X:::::::::@###@#@@%@@%%@%::::::::::::::::::::",
"::::::::::::::::::::::::..:::::::@#$#@#@#@@@%@%%%%:::::::::::::::::::",
"::::::::::::::::::::::::X.::::::@$#@@#@#@#@%@%%@%%%::::::::::::::::::",
"::::::::::::::::::::::::.X::::::@@@@@@@@#@%@%@%%%@:::::::::::::::::::",
"::::::::::::::::::::::::.X:::::::@%%%.@@@#@%@%%%@::::::::::::::::::::",
"::::::::::::::::::::::::XX:::::::::%%&.@@@@@@%@::::::::::::::::::::::",
"::::::::::::::::::::::::XX:::::::::::&.%%@@@*.:::::::::::::::::::::::",
":::::::::::::::::::::::::XX::::::::::&.:::::*.:::::::::::::::::::::::",
":::::::::::::::::::::::::.X::::::::::*.::::::*.::::::::::::::::::::::",
":::::::::::::::::::::::::XX::::::::::*&::::::*.::::::::::::::::::::::",
":::::::::::::::::::::::::.X::::::::::*&:::::::*&:::::::::::::::::::::",
":::::::::::::::::::::::::.X::::::::::&&:::::::&&:::::::::::::::::::::",
":::::::::::::::::::::::::XX::::::::::*&::::::::*&::::::::::::::::::::",
"::::::::::::::::::::::::::XX:::::::::*&::::::::*&::::::::::::::::::::",
"::::::::::::::::::::::::::XX:::::::::*&:::::::::*&:::::::::::::::::::",
"::::::::::::::::::::::::::XX:::::::::*&::::::::=*&=::::::::::::::::::",
":::::::::::::::::::::::::::X::::::::=&&=:::::::==*=-:::::::::::::::::",
":::::::::::::::::::::::::::X::::::::-==-::::::::===-:::::::::::::::::",
":::::::::::::::::::::::::::X::::=====--=::::::=--=--:::::::::::::::::",
":::::::::::::::::::::::::::X::::==------::::::===--;:::::::::::::::::",
":::::::::::::::::::::::::::X:::::-;;-;;;:::::::---;;:::::::::::::::::",
":::::::::::::::::::::::::::::::::::::::::::::::::::::::::::::::::::::",
":::::::::::::::::::::::::::::::::::::::::::::::::::::::::::::::::::::",
":::::::::::::::::::::::::::::::::::::::::::::::::::::::::::::::::::::",
":::::::::::::::::::::::::::::::::::::::::::::::::::::::::::::::::::::",
":::::::::::::::::::::::::::::::::::::::::::::::::::::::::::::::::::::"
};
