/* XPM */
static char *_07aa66f1b4f4cefaf66070d35b85169[] = {
/* columns rows colors chars-per-pixel */
"58 110 64 1 ",
"  c #FFDDC4",
". c white",
"X c #552400",
"o c #1E293E",
"O c #FFC69B",
"+ c #26405B",
"@ c #33486C",
"# c #4576AB",
"$ c #F16427",
"% c #414141",
"& c #7C4E34",
"* c #452B1D",
"= c black",
"- c #8E583C",
"; c #92320A",
": c #385F89",
"> c gray14",
", c #283A57",
"< c #434849",
"1 c #8E9699",
"2 c #3D6796",
"3 c #DC4B0E",
"4 c #2D4060",
"5 c gray90",
"6 c #1B1B1B",
"7 c #768083",
"8 c #9F3400",
"9 c #6F090E",
"0 c #F3F3F3",
"q c #421C00",
"w c #EFEFEF",
"e c #FFC4C5",
"r c #FFAA82",
"t c #FFAAAC",
"y c #FFBD9D",
"u c None",
"i c black",
"p c black",
"a c black",
"s c black",
"d c black",
"f c black",
"g c black",
"h c black",
"j c black",
"k c black",
"l c black",
"z c black",
"x c black",
"c c black",
"v c black",
"b c black",
"n c black",
"m c black",
"M c black",
"N c black",
"B c black",
"V c black",
"C c black",
"Z c black",
"A c black",
"S c black",
"D c black",
"F c black",
/* pixels */
"uuuuuuuuuuuuuuuuuuuuuu%%%%%%uuuuuuuuuu++++uuuuuuuuuuuuuuuu",
"uuuuuuuuuuuuuuuuuuuuuu%%%%%%uuuuuuuuuu++++uuuuuuuuuuuuuuuu",
"uuuuuuuuuuuuuuuuuu%%%%......%%%%%%%%++##::++uuuuuuuuuuuuuu",
"uuuuuuuuuuuuuuuuuu%%%%......%%%%%%%%++##::++uuuuuuuuuuuuuu",
"uuuuuuuuuuuuuuuu%%..................##++++++uuuuuuuuuuuuuu",
"uuuuuuuuuuuuuuuu%%..................##++++++uuuuuuuuuuuuuu",
"uuuuuuuuuuuuuu%%......##............####::::++uuuuuuuuuuuu",
"uuuuuuuuuuuuuu%%......##............####::::++uuuuuuuuuuuu",
"uuuuuuuuuuuuuu%%....######..........######::::++uuuuuuuuuu",
"uuuuuuuuuuuuuu%%....######..........######::::++uuuuuuuuuu",
"uuuuuuuuuuuu%%......######..........######::::++uuuuuuuuuu",
"uuuuuuuuuuuu%%......######..........######::::++uuuuuuuuuu",
"uuuuuuuuuuuu%%........##............######::::++uuuuuuuuuu",
"uuuuuuuuuuuu%%........##............######::::++uuuuuuuuuu",
"uu++++++++++++++++++++++++++........######::::++uuuuuuuuuu",
"uu++++++++++++++++++++++++++........######::::++uuuuuuuuuu",
"++::::::::++++##############++++++..######::::++uuuuuuuuuu",
"++::::::::++++##############++++++..######::::++uuuuuuuuuu",
"++222222::::**++++++++++++++222222++######::::++uuuuuuuuuu",
"++222222::::**++++++++++++++222222++######::::++uuuuuuuuuu",
"uu++222222**&&&&&&&&**      ++++++22++####::::++uuuuuuuuuu",
"uu++222222**&&&&&&&&**      ++++++22++####::::++uuuuuuuuuu",
"uuuu++++22::**--&&**              ++++++++++++++****uuuuuu",
"uuuu++++22::**--&&**              ++++++++++++++****uuuuuu",
"uuuuuuuu++++==****                  **--------------**uuuu",
"uuuuuuuu++++==****                  **--------------**uuuu",
"uuuuuuuuuuuu......    ......        **----------------**uu",
"uuuuuuuuuuuu......    ......        **----------------**uu",
"uuuuuuuuuu........00..........      **--------------&&**uu",
"uuuuuuuuuu........00..........      **--------------&&**uu",
"uuuuuuuuuu....==..00....==....      **----XXXXXX&&&&**uuuu",
"uuuuuuuuuu....==..00....==....      **----XXXXXX&&&&**uuuu",
"uuuuuuuuuu........00..........        ****OOOOOOXX&&&&**uu",
"uuuuuuuuuu........00..........        ****OOOOOOXX&&&&**uu",
"uuuuuuuuuuuu....8888  ......          OOOOOOOOOOXX&&&&**uu",
"uuuuuuuuuuuu....8888  ......          OOOOOOOOOOXX&&&&**uu",
"uuuuuuuuuuXX  88yyrr                  OOOOOOOOOOXX&&&&&&**",
"uuuuuuuuuuXX  88yyrr                  OOOOOOOOOOXX&&&&&&**",
"uuuuuuuuXX      8888                  OOOOXXXXXX&&&&&&&&**",
"uuuuuuuuXX      8888                  OOOOXXXXXX&&&&&&&&**",
"uuuuuuuuXX                          OOOOOOXX&&&&&&&&****uu",
"uuuuuuuuXX                          OOOOOOXX&&&&&&&&****uu",
"uuuuuuuuXX      99..........ww      OOOOOOXX&&&&&&&&**uuuu",
"uuuuuuuuXX      99..........ww      OOOOOOXX&&&&&&&&**uuuu",
"uuuuuuuuXX        999999eett      OOOOOOXX&&&&&&&&**uuuuuu",
"uuuuuuuuXX        999999eett      OOOOOOXX&&&&&&&&**uuuuuu",
"uuuuuuuuXX                      OOOOoooooooooooooo**uuuuuu",
"uuuuuuuuXX                      OOOOoooooooooooooo**uuuuuu",
"uuuuuuuuuuXXOOOO              OOOOoo@@@@@@@@@@,,oouuuuuuuu",
"uuuuuuuuuuXXOOOO              OOOOoo@@@@@@@@@@,,oouuuuuuuu",
"uuuuuuuuuuuuXXXXOOOOOOOOOOOOOOXXoo@@@@@@@@@@@@,,oouuuuuuuu",
"uuuuuuuuuuuuXXXXOOOOOOOOOOOOOOXXoo@@@@@@@@@@@@,,oouuuuuuuu",
"uuuuuuuuuuuuoo,,XXXXXXXXXXXXXX  oo4444444444,,oouuuuuuuuuu",
"uuuuuuuuuuuuoo,,XXXXXXXXXXXXXX  oo4444444444,,oouuuuuuuuuu",
"uuuuuuuuuuuuuuoo,,,,oo        oo,,,,,,,,,,,,,,oouuuuuuuuuu",
"uuuuuuuuuuuuuuoo,,,,oo        oo,,,,,,,,,,,,,,oouuuuuuuuuu",
"uuuuuuuuuuuuuu;;oo@@oo;;    ;;oo444444;;;;,,oouuuuuuuuuuuu",
"uuuuuuuuuuuuuu;;oo@@oo;;    ;;oo444444;;;;,,oouuuuuuuuuuuu",
"uuuuuuuuuuuuuu;;oo@@oo$$;;;;$$oo@@@@;;$$33;;oouuuuuuuuuuuu",
"uuuuuuuuuuuuuu;;oo@@oo$$;;;;$$oo@@@@;;$$33;;oouuuuuuuuuuuu",
"uuuuuuuuuuuuuu;;oo@@oo$$$$$$$$oo@@@@;;$$33;;oouuuuuuuuuuuu",
"uuuuuuuuuuuuuu;;oo@@oo$$$$$$$$oo@@@@;;$$33;;oouuuuuuuuuuuu",
"uuuuuuuuuuuuuu;;oo@@oo333333$$oo@@@@;;$$33;;oouuuuuuuuuuuu",
"uuuuuuuuuuuuuu;;oo@@oo333333$$oo@@@@;;$$33;;oouuuuuuuuuuuu",
"uuuuuuuuuuuuuu;;oo@@oo$$$$$$$$oo@@@@;;;;;;;;oouuuuuuuuuuuu",
"uuuuuuuuuuuuuu;;oo@@oo$$$$$$$$oo@@@@;;;;;;;;oouuuuuuuuuuuu",
"uuuuuuuuuuuuuuXXoo@@oo$$$$$$$$oo@@@@XX  OOXXoouuuuuuuuuuuu",
"uuuuuuuuuuuuuuXXoo@@oo$$$$$$$$oo@@@@XX  OOXXoouuuuuuuuuuuu",
"uuuuuuuuuuuuuuXXoo@@oo$$$$$$$$oo@@@@XX  OOXX,,oouuuuuuuuuu",
"uuuuuuuuuuuuuuXXoo@@oo$$$$$$$$oo@@@@XX  OOXX,,oouuuuuuuuuu",
"uuuuuuuuuuuuuuXXoo@@oo$$$$$$$$oo@@@@XX  OOXX,,oouuuuuuuuuu",
"uuuuuuuuuuuuuuXXoo@@oo$$$$$$$$oo@@@@XX  OOXX,,oouuuuuuuuuu",
"uuuuuuuuuuuuuuXXoo@@oo$$$$$$$$oo@@@@XX  OOXX,,oouuuuuuuuuu",
"uuuuuuuuuuuuuuXXoo@@oo$$$$$$$$oo@@@@XX  OOXX,,oouuuuuuuuuu",
"uuuuuuuuuuuuuuXXoo@@oo333333$$oo@@@@XX  OOXX,,oouuuuuuuuuu",
"uuuuuuuuuuuuuuXXoo@@oo333333$$oo@@@@XX  OOXX,,oouuuuuuuuuu",
"uuuuuuuuuuuuuuXXoo@@oo$$$$$$$$oo@@@@XX  OOXXoouuuuuuuuuuuu",
"uuuuuuuuuuuuuuXXoo@@oo$$$$$$$$oo@@@@XX  OOXXoouuuuuuuuuuuu",
"uuuuuuuuuuuuuuXXOOoooo$$$$$$$$ooooooXX  OOXXuuuuuuuuuuuuuu",
"uuuuuuuuuuuuuuXXOOoooo$$$$$$$$ooooooXX  OOXXuuuuuuuuuuuuuu",
"uuuuuuuuuuuuuuXXOO<<11;;;;;;;;111177XX  OOXXuuuuuuuuuuuuuu",
"uuuuuuuuuuuuuuXXOO<<11;;;;;;;;111177XX  OOXXuuuuuuuuuuuuuu",
"uuuuuuuuuuuuuuXXOO<<1111111111111177XX  OOXXuuuuuuuuuuuuuu",
"uuuuuuuuuuuuuuXXOO<<1111111111111177XX  OOXXuuuuuuuuuuuuuu",
"uuuuuuuuuuuuuuXXOO<<111177<<<<<<1177XX    OOXXuuuuuuuuuuuu",
"uuuuuuuuuuuuuuXXOO<<111177<<<<<<1177XX    OOXXuuuuuuuuuuuu",
"uuuuuuuuuuuuuuXXOO<<111177<<uu<<1177XX    OOXXuuuuuuuuuuuu",
"uuuuuuuuuuuuuuXXOO<<111177<<uu<<1177XX    OOXXuuuuuuuuuuuu",
"uuuuuuuuuuuuuuuuXX<<<<<<<<<<uu<<<<<<XX    OOXXuuuuuuuuuuuu",
"uuuuuuuuuuuuuuuuXX<<<<<<<<<<uu<<<<<<XX    OOXXuuuuuuuuuuuu",
"uuuuuuuuuuuuuuuuuuXX  OOXXuuuuXX  OOqqXXXXXXuuuuuuuuuuuuuu",
"uuuuuuuuuuuuuuuuuuXX  OOXXuuuuXX  OOqqXXXXXXuuuuuuuuuuuuuu",
"uuuuuuuuuuuuuuuuuuXX  OOXXuuuuXX  OOXXuuuuuuuuuuuuuuuuuuuu",
"uuuuuuuuuuuuuuuuuuXX  OOXXuuuuXX  OOXXuuuuuuuuuuuuuuuuuuuu",
"uuuuuuuuuuuuuuuuuuXX  OOXXuuuuXX  OOXXuuuuuuuuuuuuuuuuuuuu",
"uuuuuuuuuuuuuuuuuuXX  OOXXuuuuXX  OOXXuuuuuuuuuuuuuuuuuuuu",
"uuuuuuuuuuuuuuuuuu%%%%%%%%uuuu%%%%%%%%uuuuuuuuuuuuuuuuuuuu",
"uuuuuuuuuuuuuuuuuu%%%%%%%%uuuu%%%%%%%%uuuuuuuuuuuuuuuuuuuu",
"uuuuuuuuuuuuuuuuuu%%..55%%uuuu%%..55%%uuuuuuuuuuuuuuuuuuuu",
"uuuuuuuuuuuuuuuuuu%%..55%%uuuu%%..55%%uuuuuuuuuuuuuuuuuuuu",
"uuuuuuuuuuuuuuuu======55%%uu======55%%uuuuuuuuuuuuuuuuuuuu",
"uuuuuuuuuuuuuuuu======55%%uu======55%%uuuuuuuuuuuuuuuuuuuu",
"uuuuuuuuuu========66==========>>======uuuuuuuuuuuuuuuuuuuu",
"uuuuuuuuuu========66==========>>======uuuuuuuuuuuuuuuuuuuu",
"uuuuuuuu==>>>>>>>>66==>>>>>>>>>>6666==uuuuuuuuuuuuuuuuuuuu",
"uuuuuuuu==>>>>>>>>66==>>>>>>>>>>6666==uuuuuuuuuuuuuuuuuuuu",
"uuuuuu==>>>>>>>>>>==>>>>>>>>>>>>6666==uuuuuuuuuuuuuuuuuuuu",
"uuuuuu==>>>>>>>>>>==>>>>>>>>>>>>6666==uuuuuuuuuuuuuuuuuuuu",
"uuuuuu%%........55%%............5555%%uuuuuuuuuuuuuuuuuuuu",
"uuuuuu%%........55%%............5555%%uuuuuuuuuuuuuuuuuuuu"
};
